# xmcd
#
# Track frame offsets: 
#        150
#        21193
#        43208
#        68505
#        85318
#        112558
#        130980
#        144010
#        184441
#        207835
#        231004
#        244136
#        273124
#        294649
#
# Disc length: 4429 seconds
#
# Revision: 0
# Processed by: cddbd v1.5.2PL0 Copyright (c) Steve Scherf et al.
# Submitted via: ExactAudioCopy v1.3
#
DISCID=c0114b0e
DTITLE=Shelley King - Rockin' The Dancehall
DYEAR=2004
DGENRE=Country Rock
TTITLE0=Soul Searching
TTITLE1=Running Out Of Blue
TTITLE2=Things You Do
TTITLE3=Chances Are
TTITLE4=Summer Song
TTITLE5=Crescent City
TTITLE6=One Shot At A Time
TTITLE7=One Way Ticket To Austin
TTITLE8=Rainy Daze
TTITLE9=The Highway
TTITLE10=Texas Style Zydeco
TTITLE11=Drivin' By Myself
TTITLE12=Call Of My Heart
TTITLE13=High On A Mountain
EXTD=
EXTT0=
EXTT1=
EXTT2=
EXTT3=
EXTT4=
EXTT5=
EXTT6=
EXTT7=
EXTT8=
EXTT9=
EXTT10=
EXTT11=
EXTT12=
EXTT13=
PLAYORDER=
